<svg id="Camada_1" data-name="Camada 1" xmlns="http://www.w3.org/2000/svg" viewBox="0 0 1522.62 283.41">
  <defs>
    <style>
      .cls-1{fill:#44c9e3}
    </style>
  </defs>
  <path class="cls-1" d="M902.21 190A85.06 85.06 0 00960.3 42.79L972 23.73 948.26 9.2l-11.09 18.12a85.12 85.12 0 10-35 162.72zm0-142.41a57.31 57.31 0 11-57.3 57.31 57.37 57.37 0 0157.3-57.27zM902.21 255.6a57.37 57.37 0 01-57.3-57.3h-27.82a85.12 85.12 0 00170.24 0h-27.82a57.37 57.37 0 01-57.3 57.3zM0 142.72l23.88-8.43a28.07 28.07 0 009.55 18.12q8.16 7.17 21.91 7.16 10.69 0 16.86-5.2a16.07 16.07 0 006.19-12.77q0-13.5-17.43-17.42l-23-5.06q-15.75-3.37-24.73-13.48t-9-24.45q0-17.41 14.18-30.06t33.85-12.64a65.43 65.43 0 0123 3.78Q85.4 46.08 91 52.26a56.81 56.81 0 018.43 11.52 48 48 0 014.21 11l-23.29 8.66a28.91 28.91 0 00-2-6.61A38.38 38.38 0 0074 69.67a20.48 20.48 0 00-8.57-6.32A33.86 33.86 0 0052.25 61q-9.84 0-16.15 5.3T29.78 79q0 12.92 15.45 16.29L67.15 100q18 3.94 27.66 14.48t9.7 25.69q0 16-13.06 28.95t-36.39 12.94q-25 0-39-12.51T0 142.72zM165.76 177.83h-26.13V42.7h25.28v18a40.6 40.6 0 0117.42-16.3 52 52 0 0123.59-5.62 46.69 46.69 0 0124.17 6.46 39.08 39.08 0 0116.29 19.1q14.06-25.54 45.23-25.56a45.72 45.72 0 0133 13.2q13.62 13.2 13.62 38.22v87.64h-26.09V93q0-14-7.17-22.48t-21.5-8.43q-13.77 0-22.48 9.7t-8.7 24.3v81.75h-26.41V93q0-14-7.17-22.48t-21.49-8.43q-14.06 0-22.76 9.56t-8.7 24.72v81.47zM372 141.6q0-17.43 11.24-27.95T413 100.57l36.53-5.34q10.38-1.4 10.39-10.11 0-10.66-7.3-17.41T430.68 61q-13.49 0-21.35 7.44t-9.27 19.81l-25.29-5.9q2-19.38 17.71-31.6t37.64-12.22q28.67 0 42.42 13.91t13.77 35.53v67.71a134.63 134.63 0 001.69 22.15h-25.86a111.85 111.85 0 01-1.4-18.26q-5.62 9-16.43 15.74t-27.11 6.75q-19.95 0-32.59-11.95T372 141.6zm48.88 18.26q17.72 0 28.38-9.56T459.9 120v-6.18L418.6 120q-9 1.41-14.33 6.46t-5.33 13.76A18.62 18.62 0 00405 154q6 5.85 15.85 5.86zM602.34 41.3v28.09a81.62 81.62 0 00-11.52-.84q-37.08 0-37.09 41.58v67.7h-26.4V42.7h25.85v23.6q12.36-25.84 40.45-25.85a43.61 43.61 0 018.71.85zM672.85 0v42.7h29.22v23.88h-29.22v70.24q0 9.56 4.36 14.05t14.47 4.49a43.12 43.12 0 0010.39-1.12v22.48q-6.75 2.52-18 2.53-17.43 0-27.53-10.13t-10.12-28.37V66.58H620.6V42.7h7.31c6.91 0 12.12-1.92 15.58-5.76s5.2-8.85 5.2-15V0zM1107.19 161.54a34.52 34.52 0 01-16.29 15.31 54.29 54.29 0 01-23.61 5.21q-23 0-36.79-15.32t-13.77-38.91V42.7h26.41v81.2q0 15.16 7.45 25t23.17 9.84q15.73 0 23.88-9.42t8.15-25.14V42.7h26.4v110.13a210.59 210.59 0 001.41 25h-25.28a93.32 93.32 0 01-1.13-16.29zM1270.7 131.47l22.76 7.87a59.77 59.77 0 01-21.91 30.77q-16 11.94-38.77 11.95-28.38 0-48.19-19.53t-19.8-52.68q0-30.9 19.1-51.13t45.51-20.23q30.63 0 47.77 19.24t17.14 51.55a54.37 54.37 0 01-.56 8.43H1192q.27 18 11.93 29.51t28.81 11.51q28.97 0 37.96-27.26zm-77.82-35.11h73.89q-.57-15.17-10.12-24.86t-27-9.7q-15.74 0-25.85 10.26a36.79 36.79 0 00-10.92 24.3zM1315.38 142.72l23.87-8.43a28.08 28.08 0 009.56 18.12q8.14 7.17 21.91 7.16c7.12 0 12.73-1.73 16.87-5.2a16.08 16.08 0 006.17-12.77q0-13.5-17.42-17.42l-23-5.06q-15.73-3.37-24.72-13.48t-9-24.45q0-17.41 14.18-30.06t33.86-12.64a65.53 65.53 0 0123 3.78q10.1 3.81 15.73 10a57.59 57.59 0 018.43 11.52 48.51 48.51 0 014.21 11l-23.32 8.71a28.41 28.41 0 00-2-6.61 37.33 37.33 0 00-4.36-7.16 20.42 20.42 0 00-8.57-6.32 33.81 33.81 0 00-13.2-2.39q-9.83 0-16.15 5.34c-4.23 3.56-6.32 7.78-6.32 12.65q0 12.92 15.44 16.29l21.92 4.77q18 3.94 27.67 14.48t9.7 25.69q0 16-13.06 28.95t-36.39 12.93q-25 0-39-12.51t-16.01-26.89zM1490.4 0v42.7h29.22v23.88h-29.22v70.24q0 9.56 4.36 14.05t14.46 4.49a43.15 43.15 0 0010.4-1.12v22.48q-6.75 2.52-18 2.53-17.43 0-27.54-10.13T1464 140.75V66.58h-25.84V42.7h7.31c6.91 0 12.12-1.92 15.58-5.76s5.2-8.85 5.2-15V0z"/>
</svg>
