<svg width="145" height="13" viewBox="0 0 145 13" fill="none" xmlns="http://www.w3.org/2000/svg">
<path d="M7.408 0.992C7.408 0.938666 7.424 0.896 7.456 0.863999C7.49867 0.821333 7.54667 0.799999 7.6 0.799999H9.472C9.52533 0.799999 9.568 0.821333 9.6 0.863999C9.64267 0.896 9.664 0.938666 9.664 0.992V11.808C9.664 11.8613 9.64267 11.9093 9.6 11.952C9.568 11.984 9.52533 12 9.472 12H7.664C7.55733 12 7.48267 11.9573 7.44 11.872L3.296 5.024C3.27467 4.992 3.25333 4.98133 3.232 4.992C3.21067 4.992 3.2 5.01333 3.2 5.056L3.232 11.808C3.232 11.8613 3.21067 11.9093 3.168 11.952C3.136 11.984 3.09333 12 3.04 12H1.168C1.11467 12 1.06667 11.984 1.024 11.952C0.992 11.9093 0.976 11.8613 0.976 11.808V0.992C0.976 0.938666 0.992 0.896 1.024 0.863999C1.06667 0.821333 1.11467 0.799999 1.168 0.799999H2.976C3.08267 0.799999 3.15733 0.842666 3.2 0.927999L7.328 7.744C7.34933 7.776 7.37067 7.792 7.392 7.792C7.41333 7.78133 7.424 7.75467 7.424 7.712L7.408 0.992ZM23.7366 12C23.63 12 23.5606 11.9467 23.5286 11.84L23.0486 10.272C23.0273 10.2293 23.0006 10.208 22.9686 10.208H19.0326C19.0006 10.208 18.974 10.2293 18.9526 10.272L18.4886 11.84C18.4566 11.9467 18.3873 12 18.2806 12H16.2486C16.1846 12 16.1366 11.984 16.1046 11.952C16.0726 11.9093 16.0673 11.8507 16.0886 11.776L19.5446 0.959999C19.5766 0.853333 19.646 0.799999 19.7526 0.799999H22.2646C22.3713 0.799999 22.4406 0.853333 22.4726 0.959999L25.9286 11.776C25.9393 11.7973 25.9446 11.824 25.9446 11.856C25.9446 11.952 25.886 12 25.7686 12H23.7366ZM19.5286 8.368C19.518 8.432 19.5393 8.464 19.5926 8.464H22.4086C22.4726 8.464 22.494 8.432 22.4726 8.368L21.0326 3.616C21.022 3.57333 21.006 3.55733 20.9846 3.568C20.9633 3.568 20.9473 3.584 20.9366 3.616L19.5286 8.368ZM38.704 0.799999C38.7573 0.799999 38.8 0.821333 38.832 0.863999C38.8747 0.896 38.896 0.938666 38.896 0.992V2.56C38.896 2.61333 38.8747 2.66133 38.832 2.704C38.8 2.736 38.7573 2.752 38.704 2.752H35.84C35.7867 2.752 35.76 2.77867 35.76 2.832V11.808C35.76 11.8613 35.7387 11.9093 35.696 11.952C35.664 11.984 35.6213 12 35.568 12H33.696C33.6427 12 33.5947 11.984 33.552 11.952C33.52 11.9093 33.504 11.8613 33.504 11.808V2.832C33.504 2.77867 33.4773 2.752 33.424 2.752H30.64C30.5867 2.752 30.5387 2.736 30.496 2.704C30.464 2.66133 30.448 2.61333 30.448 2.56V0.992C30.448 0.938666 30.464 0.896 30.496 0.863999C30.5387 0.821333 30.5867 0.799999 30.64 0.799999H38.704ZM45.5274 12C45.474 12 45.426 11.984 45.3834 11.952C45.3514 11.9093 45.3354 11.8613 45.3354 11.808V0.992C45.3354 0.938666 45.3514 0.896 45.3834 0.863999C45.426 0.821333 45.474 0.799999 45.5274 0.799999H47.3994C47.4527 0.799999 47.4954 0.821333 47.5274 0.863999C47.57 0.896 47.5914 0.938666 47.5914 0.992V11.808C47.5914 11.8613 47.57 11.9093 47.5274 11.952C47.4954 11.984 47.4527 12 47.3994 12H45.5274ZM66.5816 12.128C65.7283 12.128 64.9816 11.9947 64.3416 11.728C63.7016 11.4507 63.2056 11.0613 62.8536 10.56C62.5123 10.048 62.3416 9.456 62.3416 8.784V8.432C62.3416 8.37867 62.3576 8.336 62.3896 8.304C62.4323 8.26133 62.4803 8.24 62.5336 8.24H64.3576C64.411 8.24 64.4536 8.26133 64.4856 8.304C64.5283 8.336 64.5496 8.37867 64.5496 8.432V8.672C64.5496 9.09867 64.747 9.46133 65.1416 9.76C65.5363 10.048 66.0696 10.192 66.7416 10.192C67.307 10.192 67.7283 10.0747 68.0056 9.84C68.283 9.59467 68.4216 9.296 68.4216 8.944C68.4216 8.688 68.3363 8.47467 68.1656 8.304C67.995 8.12267 67.7603 7.968 67.4616 7.84C67.1736 7.70133 66.7096 7.51467 66.0696 7.28C65.355 7.03467 64.747 6.784 64.2456 6.528C63.755 6.272 63.339 5.92533 62.9976 5.488C62.667 5.04 62.5016 4.49067 62.5016 3.84C62.5016 3.2 62.667 2.64 62.9976 2.16C63.3283 1.68 63.787 1.312 64.3736 1.056C64.9603 0.8 65.6376 0.672 66.4056 0.672C67.2163 0.672 67.9363 0.816 68.5656 1.104C69.2056 1.392 69.7016 1.79733 70.0536 2.32C70.4163 2.832 70.5976 3.42933 70.5976 4.112V4.352C70.5976 4.40533 70.5763 4.45333 70.5336 4.496C70.5016 4.528 70.459 4.544 70.4056 4.544H68.5656C68.5123 4.544 68.4643 4.528 68.4216 4.496C68.3896 4.45333 68.3736 4.40533 68.3736 4.352V4.224C68.3736 3.776 68.187 3.39733 67.8136 3.088C67.451 2.768 66.9496 2.608 66.3096 2.608C65.8083 2.608 65.4136 2.71467 65.1256 2.928C64.8483 3.14133 64.7096 3.43467 64.7096 3.808C64.7096 4.07467 64.7896 4.29867 64.9496 4.48C65.1203 4.66133 65.3656 4.82667 65.6856 4.976C66.0163 5.11467 66.523 5.30667 67.2056 5.552C67.963 5.82933 68.555 6.07467 68.9816 6.288C69.419 6.50133 69.8083 6.82133 70.1496 7.248C70.5016 7.664 70.6776 8.208 70.6776 8.88C70.6776 9.88267 70.3096 10.6773 69.5736 11.264C68.8376 11.84 67.8403 12.128 66.5816 12.128ZM81.2413 12.176C80.4093 12.176 79.6733 12.0053 79.0333 11.664C78.4039 11.3227 77.9133 10.848 77.5613 10.24C77.2093 9.62133 77.0333 8.912 77.0333 8.112V4.688C77.0333 3.89867 77.2093 3.2 77.5613 2.592C77.9133 1.984 78.4039 1.51467 79.0333 1.184C79.6733 0.842666 80.4093 0.672 81.2413 0.672C82.0839 0.672 82.8199 0.842666 83.4493 1.184C84.0893 1.51467 84.5853 1.984 84.9373 2.592C85.2893 3.2 85.4653 3.89867 85.4653 4.688V8.112C85.4653 8.912 85.2893 9.62133 84.9373 10.24C84.5853 10.8587 84.0893 11.3387 83.4493 11.68C82.8199 12.0107 82.0839 12.176 81.2413 12.176ZM81.2413 10.24C81.8279 10.24 82.3026 10.0533 82.6653 9.68C83.0279 9.30667 83.2093 8.81067 83.2093 8.192V4.672C83.2093 4.05333 83.0279 3.55733 82.6653 3.184C82.3133 2.8 81.8386 2.608 81.2413 2.608C80.6546 2.608 80.1799 2.8 79.8173 3.184C79.4653 3.55733 79.2893 4.05333 79.2893 4.672V8.192C79.2893 8.81067 79.4653 9.30667 79.8173 9.68C80.1799 10.0533 80.6546 10.24 81.2413 10.24ZM99.0648 12C98.9581 12 98.8888 11.9467 98.8568 11.84L98.3768 10.272C98.3554 10.2293 98.3288 10.208 98.2968 10.208H94.3608C94.3288 10.208 94.3021 10.2293 94.2808 10.272L93.8168 11.84C93.7848 11.9467 93.7154 12 93.6088 12H91.5768C91.5128 12 91.4648 11.984 91.4328 11.952C91.4008 11.9093 91.3954 11.8507 91.4168 11.776L94.8728 0.959999C94.9048 0.853333 94.9741 0.799999 95.0807 0.799999H97.5928C97.6994 0.799999 97.7688 0.853333 97.8008 0.959999L101.257 11.776C101.267 11.7973 101.273 11.824 101.273 11.856C101.273 11.952 101.214 12 101.097 12H99.0648ZM94.8568 8.368C94.8461 8.432 94.8674 8.464 94.9208 8.464H97.7368C97.8008 8.464 97.8221 8.432 97.8008 8.368L96.3608 3.616C96.3501 3.57333 96.3341 3.55733 96.3128 3.568C96.2914 3.568 96.2754 3.584 96.2648 3.616L94.8568 8.368ZM113.823 12C113.716 12 113.642 11.952 113.599 11.856L111.599 7.424C111.578 7.38133 111.546 7.36 111.503 7.36H110.015C109.962 7.36 109.935 7.38667 109.935 7.44V11.808C109.935 11.8613 109.914 11.9093 109.871 11.952C109.839 11.984 109.796 12 109.743 12H107.871C107.818 12 107.77 11.984 107.727 11.952C107.695 11.9093 107.679 11.8613 107.679 11.808V0.992C107.679 0.938666 107.695 0.896 107.727 0.863999C107.77 0.821333 107.818 0.799999 107.871 0.799999H112.447C113.13 0.799999 113.727 0.938666 114.239 1.216C114.762 1.49333 115.162 1.888 115.439 2.4C115.727 2.912 115.871 3.504 115.871 4.176C115.871 4.90133 115.69 5.52533 115.327 6.048C114.964 6.56 114.458 6.92267 113.807 7.136C113.754 7.15733 113.738 7.19467 113.759 7.248L115.935 11.776C115.956 11.8187 115.967 11.8507 115.967 11.872C115.967 11.9573 115.908 12 115.791 12H113.823ZM110.015 2.736C109.962 2.736 109.935 2.76267 109.935 2.816V5.552C109.935 5.60533 109.962 5.632 110.015 5.632H112.111C112.559 5.632 112.922 5.49867 113.199 5.232C113.487 4.96533 113.631 4.61867 113.631 4.192C113.631 3.76533 113.487 3.41867 113.199 3.152C112.922 2.87467 112.559 2.736 112.111 2.736H110.015ZM130.283 2.544C130.283 2.59733 130.262 2.64533 130.219 2.688C130.187 2.72 130.145 2.736 130.091 2.736H124.843C124.79 2.736 124.763 2.76267 124.763 2.816V5.296C124.763 5.34933 124.79 5.376 124.843 5.376H128.283C128.337 5.376 128.379 5.39733 128.411 5.44C128.454 5.472 128.475 5.51467 128.475 5.568V7.12C128.475 7.17333 128.454 7.22133 128.411 7.264C128.379 7.296 128.337 7.312 128.283 7.312H124.843C124.79 7.312 124.763 7.33867 124.763 7.392V9.984C124.763 10.0373 124.79 10.064 124.843 10.064H130.091C130.145 10.064 130.187 10.0853 130.219 10.128C130.262 10.16 130.283 10.2027 130.283 10.256V11.808C130.283 11.8613 130.262 11.9093 130.219 11.952C130.187 11.984 130.145 12 130.091 12H122.699C122.646 12 122.598 11.984 122.555 11.952C122.523 11.9093 122.507 11.8613 122.507 11.808V0.992C122.507 0.938666 122.523 0.896 122.555 0.863999C122.598 0.821333 122.646 0.799999 122.699 0.799999H130.091C130.145 0.799999 130.187 0.821333 130.219 0.863999C130.262 0.896 130.283 0.938666 130.283 0.992V2.544ZM140.691 12.128C139.838 12.128 139.091 11.9947 138.451 11.728C137.811 11.4507 137.315 11.0613 136.963 10.56C136.622 10.048 136.451 9.456 136.451 8.784V8.432C136.451 8.37867 136.467 8.336 136.499 8.304C136.542 8.26133 136.59 8.24 136.643 8.24H138.467C138.52 8.24 138.563 8.26133 138.595 8.304C138.638 8.336 138.659 8.37867 138.659 8.432V8.672C138.659 9.09867 138.856 9.46133 139.251 9.76C139.646 10.048 140.179 10.192 140.851 10.192C141.416 10.192 141.838 10.0747 142.115 9.84C142.392 9.59467 142.531 9.296 142.531 8.944C142.531 8.688 142.446 8.47467 142.275 8.304C142.104 8.12267 141.87 7.968 141.571 7.84C141.283 7.70133 140.819 7.51467 140.179 7.28C139.464 7.03467 138.856 6.784 138.355 6.528C137.864 6.272 137.448 5.92533 137.107 5.488C136.776 5.04 136.611 4.49067 136.611 3.84C136.611 3.2 136.776 2.64 137.107 2.16C137.438 1.68 137.896 1.312 138.483 1.056C139.07 0.8 139.747 0.672 140.515 0.672C141.326 0.672 142.046 0.816 142.675 1.104C143.315 1.392 143.811 1.79733 144.163 2.32C144.526 2.832 144.707 3.42933 144.707 4.112V4.352C144.707 4.40533 144.686 4.45333 144.643 4.496C144.611 4.528 144.568 4.544 144.515 4.544H142.675C142.622 4.544 142.574 4.528 142.531 4.496C142.499 4.45333 142.483 4.40533 142.483 4.352V4.224C142.483 3.776 142.296 3.39733 141.923 3.088C141.56 2.768 141.059 2.608 140.419 2.608C139.918 2.608 139.523 2.71467 139.235 2.928C138.958 3.14133 138.819 3.43467 138.819 3.808C138.819 4.07467 138.899 4.29867 139.059 4.48C139.23 4.66133 139.475 4.82667 139.795 4.976C140.126 5.11467 140.632 5.30667 141.315 5.552C142.072 5.82933 142.664 6.07467 143.091 6.288C143.528 6.50133 143.918 6.82133 144.259 7.248C144.611 7.664 144.787 8.208 144.787 8.88C144.787 9.88267 144.419 10.6773 143.683 11.264C142.947 11.84 141.95 12.128 140.691 12.128Z" fill="#303030"/>
</svg>
