<svg xmlns="http://www.w3.org/2000/svg" width="842" height="456"><rect id="backgroundrect" width="100%" height="100%" x="0" y="0" fill="none" stroke="none"/><defs><style>.cls-1{fill:#001e64;}.cls-2{fill:#2ab95b;}</style></defs><title>Semco Style institute - Logo - RGB - GreenBlue</title><g class="currentLayer"><title>Layer 1</title><path class="cls-1" d="M0.000005493164053405053,99.96998413085936 h22.67 c0.39000000000000007,11.24 9.69,16.85 19.76,16.85 c10.46,0 19.76,-6.59 19.76,-17.24 c0,-11.43 -10.65,-18.6 -19.76,-19 A51.94,51.94 0 0 1 22.090005493164057,76.13998413085938 c-14.14,-6.59 -22.09,-18.6 -22.09,-34.68 c0,-25.77 20.54,-41.46 42.43,-41.46 c23.44,0 41.46,15.88 41.85,38.94 H61.800005493164065 c-0.39000000000000007,-11.24 -9.11,-16.27 -19.37,-16.27 c-10.65,0 -19.76,6.2 -19.76,18.79 c0,11.24 9.69,17.24 19.76,17.24 A51.28,51.28 0 0 1 62.580005493164066,63.139984130859375 c14.34,6.59 22.08,20.34 22.08,36.42 c0,26 -20.34,39.91 -42.23,39.91 C18.990005493164062,138.90998413085936 0.3900054931640682,125.34998413085935 0.000005493164053405053,99.96998413085936 z" id="svg_1"/><path class="cls-1" d="M123.22000549316408,24.609984130859374 v33.9 h56.37 v22.47 H123.22000549316408 v33.9 h67.81 v22.67 H100.55000549316406 V1.9499841308593773 h90.47 v22.67 z" id="svg_2"/><path class="cls-1" d="M360.15000549316403,137.5599841308594 H337.49000549316406 v-83.3 l-38.94,83.3 H277.24000549316406 l-41.46,-85 v85 H213.11000549316407 V1.7499841308593886 h23.05 L287.74000549316406,107.33998413085936 l49.4,-105.58 h23.05 z" id="svg_3"/><path class="cls-1" d="M478.910005493164,103.65998413085936 l15.89,16.08 a67.33,67.33 0 0 1 -47.85,19.76 c-37.39,0 -68,-27.12 -68,-69.74 c0,-40.88 28.28,-69.74 68,-69.74 a66.7,66.7 0 0 1 47.85,20 l-15.89,15.89 a45.26,45.26 0 0 0 -32,-13.17 c-27.9,0 -44.95,19.76 -44.95,47.08 c0,29.06 20,47.08 44.95,47.08 A45.26,45.26 0 0 0 478.910005493164,103.65998413085936 z" id="svg_4"/><path class="cls-1" d="M569.7400054931641,139.2999841308594 c-89.5,0 -89.31,-139.1 0,-139.1 C658.640005493164,0.20998413085936818 658.8300054931641,139.2999841308594 569.7400054931641,139.2999841308594 zm0,-117 c-58.51,0 -58.7,95.12 0,95.12 S628.420005493164,22.28998413085938 569.7400054931641,22.28998413085938 z" id="svg_5"/><path class="cls-2" d="M522.5800054931641,197.8599841308594 H499.910005493164 c-0.39000000000000007,-11.24 -9.69,-16.85 -19.76,-16.85 c-10.46,0 -19.76,6.59 -19.76,17.24 c0,11.43 10.65,18.6 19.76,19 a51.94,51.94 0 0 1 20.34,4.46 c14.14,6.59 22.09,18.6 22.09,34.68 c0,25.77 -20.54,41.46 -42.43,41.46 c-23.44,0 -41.46,-15.89 -41.85,-38.94 H460.74000549316406 C461.170005493164,270.1399841308594 469.89000549316404,275.1399841308594 480.15000549316403,275.1399841308594 c10.65,0 19.76,-6.2 19.76,-18.79 c0,-11.24 -9.69,-17.24 -19.76,-17.24 a51.28,51.28 0 0 1 -20.15,-4.46 c-14.34,-6.59 -22.08,-20.34 -22.08,-36.42 c0,-26 20.34,-39.91 42.23,-39.91 C503.5900054931641,158.91998413085935 522.1900054931641,172.47998413085935 522.5800054931641,197.8599841308594 z" id="svg_6"/><path class="cls-2" d="M344.540005493164,275.1399841308594 h28.48 V160.27998413085936 h22.47 V275.1399841308594 h28.48 v20.73 H344.540005493164 z" id="svg_7"/><path class="cls-2" d="M205.24000549316406,295.8899841308594 l51,-71.49 V160.27998413085936 h22.67 v64.12 l51,71.49 h-27.7 l-34.68,-48.43 l-34.48,48.43 z" id="svg_8"/><path class="cls-2" d="M117.68000549316406,182.94998413085938 V160.27998413085936 h72.84 V295.8899841308594 H167.85000549316408 V182.94998413085938 z" id="svg_9"/><path class="cls-2" d="M72.92000549316407,273.21998413085936 v-33.9 H16.550005493164065 V216.84998413085935 h56.37 v-33.9 H5.120005493164058 V160.27998413085936 h90.47 V295.8899841308594 H5.120005493164058 V273.21998413085936 z" id="svg_10"/><path class="cls-1" d="M5.090005493164057,318.6099841308594 H27.740005493164062 V454.2199841308594 H5.090005493164057 z" id="svg_11"/><path class="cls-1" d="M162.59000549316409,454.2199841308594 H139.74000549316406 L72.32000549316408,357.7399841308594 v96.48 H49.65000549316406 V318.6099841308594 h22.86 l67.61,96.48 V318.6099841308594 h22.47 z" id="svg_12"/><path class="cls-1" d="M179.84000549316409,416.6399841308594 h22.67 c0.39000000000000007,11.24 9.69,16.85 19.76,16.85 c10.46,0 19.76,-6.59 19.76,-17.24 c0,-11.43 -10.65,-18.6 -19.76,-19 a51.94,51.94 0 0 1 -20.34,-4.46 C187.74000549316406,386.2199841308594 179.84000549316409,374.2099841308594 179.84000549316409,358.1399841308594 c0,-25.77 20.53,-41.46 42.43,-41.46 c23.44,0 41.46,15.89 41.85,38.94 H241.64000549316404 c-0.39000000000000007,-11.24 -9.11,-16.27 -19.37,-16.27 c-10.66,0 -19.76,6.2 -19.76,18.79 c0,11.24 9.69,17.24 19.76,17.24 a51.27,51.27 0 0 1 20.15,4.46 c14.34,6.59 22.08,20.34 22.08,36.42 c0,26 -20.34,39.91 -42.23,39.91 C198.82000549316405,455.57998413085943 180.23000549316407,442.01998413085937 179.84000549316409,416.6399841308594 z" id="svg_13"/><path class="cls-1" d="M357.88000549316405,339.3399841308594 H329.4000054931641 V454.2199841308594 H306.93000549316406 V339.3399841308594 H278.45000549316404 V318.6099841308594 h79.43 z" id="svg_14"/><path class="cls-1" d="M379.9700054931641,318.6099841308594 H402.64000549316404 V454.2199841308594 H379.9700054931641 z" id="svg_15"/><path class="cls-1" d="M504.15000549316403,339.3399841308594 H475.670005493164 V454.2199841308594 H453.2000054931641 V339.3399841308594 H424.74000549316406 V318.6099841308594 h79.43 z" id="svg_16"/><path class="cls-1" d="M526.2400054931641,410.82998413085943 V318.6099841308594 h22.67 v92.22 c1.1600000000000001,15.69 13.75,22.67 28.09,22.67 c14.14,0 28.28,-7.5600000000000005 28.28,-22.67 V318.6099841308594 h22.67 v92.22 c0,28.87 -22.08,45.33 -51,45.33 C549.1000054931641,456.1399841308594 526.2400054931641,438.7199841308594 526.2400054931641,410.82998413085943 z" id="svg_17"/><path class="cls-1" d="M729.4700054931641,339.3399841308594 H700.9900054931641 V454.2199841308594 H678.520005493164 V339.3399841308594 H650.040005493164 V318.6099841308594 h79.43 z" id="svg_18"/><path class="cls-1" d="M774.2200054931641,341.27998413085936 V375.1399841308594 h56.37 v22.47 H774.2200054931641 v33.9 h67.81 v22.67 H751.550005493164 V318.6099841308594 h90.47 v22.67 z" id="svg_19"/></g></svg>