<?xml version="1.0" encoding="utf-8"?>
<!-- Generator: Adobe Illustrator 22.1.0, SVG Export Plug-In . SVG Version: 6.00 Build 0)  -->
<svg version="1.1" id="Layer_1" xmlns="http://www.w3.org/2000/svg" xmlns:xlink="http://www.w3.org/1999/xlink" x="0px" y="0px"
	 viewBox="0 0 800 500" style="enable-background:new 0 0 800 500;" xml:space="preserve">
<style type="text/css">
	.st0{opacity:5.000000e-02;}
	.st1{fill:none;stroke:#000000;stroke-width:5.2332;stroke-linecap:round;stroke-linejoin:round;stroke-miterlimit:10;}
</style>
<g class="st0">
	<g>
		<g>
			<line class="st1" x1="780.4" y1="7.5" x2="780.4" y2="19"/>
		</g>
		<g>
			<line class="st1" x1="786.2" y1="13.3" x2="774.7" y2="13.3"/>
		</g>
	</g>
	<g>
		<g>
			<line class="st1" x1="780.4" y1="38.9" x2="780.4" y2="50.4"/>
		</g>
		<g>
			<line class="st1" x1="786.2" y1="44.7" x2="774.7" y2="44.7"/>
		</g>
	</g>
	<g>
		<g>
			<line class="st1" x1="780.4" y1="70.3" x2="780.4" y2="81.8"/>
		</g>
		<g>
			<line class="st1" x1="786.2" y1="76.1" x2="774.7" y2="76.1"/>
		</g>
	</g>
	<g>
		<g>
			<line class="st1" x1="780.4" y1="101.7" x2="780.4" y2="113.2"/>
		</g>
		<g>
			<line class="st1" x1="786.2" y1="107.5" x2="774.7" y2="107.5"/>
		</g>
	</g>
	<g>
		<g>
			<line class="st1" x1="780.4" y1="133.1" x2="780.4" y2="144.6"/>
		</g>
		<g>
			<line class="st1" x1="786.2" y1="138.9" x2="774.7" y2="138.9"/>
		</g>
	</g>
	<g>
		<g>
			<line class="st1" x1="780.4" y1="164.5" x2="780.4" y2="176"/>
		</g>
		<g>
			<line class="st1" x1="786.2" y1="170.3" x2="774.7" y2="170.3"/>
		</g>
	</g>
	<g>
		<g>
			<line class="st1" x1="780.4" y1="195.9" x2="780.4" y2="207.4"/>
		</g>
		<g>
			<line class="st1" x1="786.2" y1="201.7" x2="774.7" y2="201.7"/>
		</g>
	</g>
	<g>
		<g>
			<line class="st1" x1="780.4" y1="227.3" x2="780.4" y2="238.8"/>
		</g>
		<g>
			<line class="st1" x1="786.2" y1="233.1" x2="774.7" y2="233.1"/>
		</g>
	</g>
	<g>
		<g>
			<line class="st1" x1="780.4" y1="258.7" x2="780.4" y2="270.2"/>
		</g>
		<g>
			<line class="st1" x1="786.2" y1="264.4" x2="774.7" y2="264.4"/>
		</g>
	</g>
	<g>
		<g>
			<line class="st1" x1="780.4" y1="290.1" x2="780.4" y2="301.6"/>
		</g>
		<g>
			<line class="st1" x1="786.2" y1="295.8" x2="774.7" y2="295.8"/>
		</g>
	</g>
	<g>
		<g>
			<line class="st1" x1="780.4" y1="321.5" x2="780.4" y2="333"/>
		</g>
		<g>
			<line class="st1" x1="786.2" y1="327.2" x2="774.7" y2="327.2"/>
		</g>
	</g>
	<g>
		<g>
			<line class="st1" x1="780.4" y1="352.9" x2="780.4" y2="364.4"/>
		</g>
		<g>
			<line class="st1" x1="786.2" y1="358.6" x2="774.7" y2="358.6"/>
		</g>
	</g>
	<g>
		<g>
			<line class="st1" x1="780.4" y1="384.3" x2="780.4" y2="395.8"/>
		</g>
		<g>
			<line class="st1" x1="786.2" y1="390" x2="774.7" y2="390"/>
		</g>
	</g>
	<g>
		<g>
			<line class="st1" x1="780.4" y1="415.7" x2="780.4" y2="427.2"/>
		</g>
		<g>
			<line class="st1" x1="786.2" y1="421.4" x2="774.7" y2="421.4"/>
		</g>
	</g>
	<g>
		<g>
			<line class="st1" x1="780.4" y1="447.1" x2="780.4" y2="458.6"/>
		</g>
		<g>
			<line class="st1" x1="786.2" y1="452.8" x2="774.7" y2="452.8"/>
		</g>
	</g>
	<g>
		<g>
			<line class="st1" x1="780.4" y1="478.5" x2="780.4" y2="490"/>
		</g>
		<g>
			<line class="st1" x1="786.2" y1="484.2" x2="774.7" y2="484.2"/>
		</g>
	</g>
</g>
<g class="st0">
	<g>
		<g>
			<line class="st1" x1="742.7" y1="7.5" x2="742.7" y2="19"/>
		</g>
		<g>
			<line class="st1" x1="748.5" y1="13.3" x2="737" y2="13.3"/>
		</g>
	</g>
	<g>
		<g>
			<line class="st1" x1="742.7" y1="38.9" x2="742.7" y2="50.4"/>
		</g>
		<g>
			<line class="st1" x1="748.5" y1="44.7" x2="737" y2="44.7"/>
		</g>
	</g>
	<g>
		<g>
			<line class="st1" x1="742.7" y1="70.3" x2="742.7" y2="81.8"/>
		</g>
		<g>
			<line class="st1" x1="748.5" y1="76.1" x2="737" y2="76.1"/>
		</g>
	</g>
	<g>
		<g>
			<line class="st1" x1="742.7" y1="101.7" x2="742.7" y2="113.2"/>
		</g>
		<g>
			<line class="st1" x1="748.5" y1="107.5" x2="737" y2="107.5"/>
		</g>
	</g>
	<g>
		<g>
			<line class="st1" x1="742.7" y1="133.1" x2="742.7" y2="144.6"/>
		</g>
		<g>
			<line class="st1" x1="748.5" y1="138.9" x2="737" y2="138.9"/>
		</g>
	</g>
	<g>
		<g>
			<line class="st1" x1="742.7" y1="164.5" x2="742.7" y2="176"/>
		</g>
		<g>
			<line class="st1" x1="748.5" y1="170.3" x2="737" y2="170.3"/>
		</g>
	</g>
	<g>
		<g>
			<line class="st1" x1="742.7" y1="195.9" x2="742.7" y2="207.4"/>
		</g>
		<g>
			<line class="st1" x1="748.5" y1="201.7" x2="737" y2="201.7"/>
		</g>
	</g>
	<g>
		<g>
			<line class="st1" x1="742.7" y1="227.3" x2="742.7" y2="238.8"/>
		</g>
		<g>
			<line class="st1" x1="748.5" y1="233.1" x2="737" y2="233.1"/>
		</g>
	</g>
	<g>
		<g>
			<line class="st1" x1="742.7" y1="258.7" x2="742.7" y2="270.2"/>
		</g>
		<g>
			<line class="st1" x1="748.5" y1="264.4" x2="737" y2="264.4"/>
		</g>
	</g>
	<g>
		<g>
			<line class="st1" x1="742.7" y1="290.1" x2="742.7" y2="301.6"/>
		</g>
		<g>
			<line class="st1" x1="748.5" y1="295.8" x2="737" y2="295.8"/>
		</g>
	</g>
	<g>
		<g>
			<line class="st1" x1="742.7" y1="321.5" x2="742.7" y2="333"/>
		</g>
		<g>
			<line class="st1" x1="748.5" y1="327.2" x2="737" y2="327.2"/>
		</g>
	</g>
	<g>
		<g>
			<line class="st1" x1="742.7" y1="352.9" x2="742.7" y2="364.4"/>
		</g>
		<g>
			<line class="st1" x1="748.5" y1="358.6" x2="737" y2="358.6"/>
		</g>
	</g>
	<g>
		<g>
			<line class="st1" x1="742.7" y1="384.3" x2="742.7" y2="395.8"/>
		</g>
		<g>
			<line class="st1" x1="748.5" y1="390" x2="737" y2="390"/>
		</g>
	</g>
	<g>
		<g>
			<line class="st1" x1="742.7" y1="415.7" x2="742.7" y2="427.2"/>
		</g>
		<g>
			<line class="st1" x1="748.5" y1="421.4" x2="737" y2="421.4"/>
		</g>
	</g>
	<g>
		<g>
			<line class="st1" x1="742.7" y1="447.1" x2="742.7" y2="458.6"/>
		</g>
		<g>
			<line class="st1" x1="748.5" y1="452.8" x2="737" y2="452.8"/>
		</g>
	</g>
	<g>
		<g>
			<line class="st1" x1="742.7" y1="478.5" x2="742.7" y2="490"/>
		</g>
		<g>
			<line class="st1" x1="748.5" y1="484.2" x2="737" y2="484.2"/>
		</g>
	</g>
</g>
<g class="st0">
	<g>
		<g>
			<line class="st1" x1="705.1" y1="7.5" x2="705.1" y2="19"/>
		</g>
		<g>
			<line class="st1" x1="710.8" y1="13.3" x2="699.3" y2="13.3"/>
		</g>
	</g>
	<g>
		<g>
			<line class="st1" x1="705.1" y1="38.9" x2="705.1" y2="50.4"/>
		</g>
		<g>
			<line class="st1" x1="710.8" y1="44.7" x2="699.3" y2="44.7"/>
		</g>
	</g>
	<g>
		<g>
			<line class="st1" x1="705.1" y1="70.3" x2="705.1" y2="81.8"/>
		</g>
		<g>
			<line class="st1" x1="710.8" y1="76.1" x2="699.3" y2="76.1"/>
		</g>
	</g>
	<g>
		<g>
			<line class="st1" x1="705.1" y1="101.7" x2="705.1" y2="113.2"/>
		</g>
		<g>
			<line class="st1" x1="710.8" y1="107.5" x2="699.3" y2="107.5"/>
		</g>
	</g>
	<g>
		<g>
			<line class="st1" x1="705.1" y1="133.1" x2="705.1" y2="144.6"/>
		</g>
		<g>
			<line class="st1" x1="710.8" y1="138.9" x2="699.3" y2="138.9"/>
		</g>
	</g>
	<g>
		<g>
			<line class="st1" x1="705.1" y1="164.5" x2="705.1" y2="176"/>
		</g>
		<g>
			<line class="st1" x1="710.8" y1="170.3" x2="699.3" y2="170.3"/>
		</g>
	</g>
	<g>
		<g>
			<line class="st1" x1="705.1" y1="195.9" x2="705.1" y2="207.4"/>
		</g>
		<g>
			<line class="st1" x1="710.8" y1="201.7" x2="699.3" y2="201.7"/>
		</g>
	</g>
	<g>
		<g>
			<line class="st1" x1="705.1" y1="227.3" x2="705.1" y2="238.8"/>
		</g>
		<g>
			<line class="st1" x1="710.8" y1="233.1" x2="699.3" y2="233.1"/>
		</g>
	</g>
	<g>
		<g>
			<line class="st1" x1="705.1" y1="258.7" x2="705.1" y2="270.2"/>
		</g>
		<g>
			<line class="st1" x1="710.8" y1="264.4" x2="699.3" y2="264.4"/>
		</g>
	</g>
	<g>
		<g>
			<line class="st1" x1="705.1" y1="290.1" x2="705.1" y2="301.6"/>
		</g>
		<g>
			<line class="st1" x1="710.8" y1="295.8" x2="699.3" y2="295.8"/>
		</g>
	</g>
	<g>
		<g>
			<line class="st1" x1="705.1" y1="321.5" x2="705.1" y2="333"/>
		</g>
		<g>
			<line class="st1" x1="710.8" y1="327.2" x2="699.3" y2="327.2"/>
		</g>
	</g>
	<g>
		<g>
			<line class="st1" x1="705.1" y1="352.9" x2="705.1" y2="364.4"/>
		</g>
		<g>
			<line class="st1" x1="710.8" y1="358.6" x2="699.3" y2="358.6"/>
		</g>
	</g>
	<g>
		<g>
			<line class="st1" x1="705.1" y1="384.3" x2="705.1" y2="395.8"/>
		</g>
		<g>
			<line class="st1" x1="710.8" y1="390" x2="699.3" y2="390"/>
		</g>
	</g>
	<g>
		<g>
			<line class="st1" x1="705.1" y1="415.7" x2="705.1" y2="427.2"/>
		</g>
		<g>
			<line class="st1" x1="710.8" y1="421.4" x2="699.3" y2="421.4"/>
		</g>
	</g>
	<g>
		<g>
			<line class="st1" x1="705.1" y1="447.1" x2="705.1" y2="458.6"/>
		</g>
		<g>
			<line class="st1" x1="710.8" y1="452.8" x2="699.3" y2="452.8"/>
		</g>
	</g>
	<g>
		<g>
			<line class="st1" x1="705.1" y1="478.5" x2="705.1" y2="490"/>
		</g>
		<g>
			<line class="st1" x1="710.8" y1="484.2" x2="699.3" y2="484.2"/>
		</g>
	</g>
</g>
<g class="st0">
	<g>
		<g>
			<line class="st1" x1="667.4" y1="7.5" x2="667.4" y2="19"/>
		</g>
		<g>
			<line class="st1" x1="673.1" y1="13.3" x2="661.6" y2="13.3"/>
		</g>
	</g>
	<g>
		<g>
			<line class="st1" x1="667.4" y1="38.9" x2="667.4" y2="50.4"/>
		</g>
		<g>
			<line class="st1" x1="673.1" y1="44.7" x2="661.6" y2="44.7"/>
		</g>
	</g>
	<g>
		<g>
			<line class="st1" x1="667.4" y1="70.3" x2="667.4" y2="81.8"/>
		</g>
		<g>
			<line class="st1" x1="673.1" y1="76.1" x2="661.6" y2="76.1"/>
		</g>
	</g>
	<g>
		<g>
			<line class="st1" x1="667.4" y1="101.7" x2="667.4" y2="113.2"/>
		</g>
		<g>
			<line class="st1" x1="673.1" y1="107.5" x2="661.6" y2="107.5"/>
		</g>
	</g>
	<g>
		<g>
			<line class="st1" x1="667.4" y1="133.1" x2="667.4" y2="144.6"/>
		</g>
		<g>
			<line class="st1" x1="673.1" y1="138.9" x2="661.6" y2="138.9"/>
		</g>
	</g>
	<g>
		<g>
			<line class="st1" x1="667.4" y1="164.5" x2="667.4" y2="176"/>
		</g>
		<g>
			<line class="st1" x1="673.1" y1="170.3" x2="661.6" y2="170.3"/>
		</g>
	</g>
	<g>
		<g>
			<line class="st1" x1="667.4" y1="195.9" x2="667.4" y2="207.4"/>
		</g>
		<g>
			<line class="st1" x1="673.1" y1="201.7" x2="661.6" y2="201.7"/>
		</g>
	</g>
	<g>
		<g>
			<line class="st1" x1="667.4" y1="227.3" x2="667.4" y2="238.8"/>
		</g>
		<g>
			<line class="st1" x1="673.1" y1="233.1" x2="661.6" y2="233.1"/>
		</g>
	</g>
	<g>
		<g>
			<line class="st1" x1="667.4" y1="258.7" x2="667.4" y2="270.2"/>
		</g>
		<g>
			<line class="st1" x1="673.1" y1="264.4" x2="661.6" y2="264.4"/>
		</g>
	</g>
	<g>
		<g>
			<line class="st1" x1="667.4" y1="290.1" x2="667.4" y2="301.6"/>
		</g>
		<g>
			<line class="st1" x1="673.1" y1="295.8" x2="661.6" y2="295.8"/>
		</g>
	</g>
	<g>
		<g>
			<line class="st1" x1="667.4" y1="321.5" x2="667.4" y2="333"/>
		</g>
		<g>
			<line class="st1" x1="673.1" y1="327.2" x2="661.6" y2="327.2"/>
		</g>
	</g>
	<g>
		<g>
			<line class="st1" x1="667.4" y1="352.9" x2="667.4" y2="364.4"/>
		</g>
		<g>
			<line class="st1" x1="673.1" y1="358.6" x2="661.6" y2="358.6"/>
		</g>
	</g>
	<g>
		<g>
			<line class="st1" x1="667.4" y1="384.3" x2="667.4" y2="395.8"/>
		</g>
		<g>
			<line class="st1" x1="673.1" y1="390" x2="661.6" y2="390"/>
		</g>
	</g>
	<g>
		<g>
			<line class="st1" x1="667.4" y1="415.7" x2="667.4" y2="427.2"/>
		</g>
		<g>
			<line class="st1" x1="673.1" y1="421.4" x2="661.6" y2="421.4"/>
		</g>
	</g>
	<g>
		<g>
			<line class="st1" x1="667.4" y1="447.1" x2="667.4" y2="458.6"/>
		</g>
		<g>
			<line class="st1" x1="673.1" y1="452.8" x2="661.6" y2="452.8"/>
		</g>
	</g>
	<g>
		<g>
			<line class="st1" x1="667.4" y1="478.5" x2="667.4" y2="490"/>
		</g>
		<g>
			<line class="st1" x1="673.1" y1="484.2" x2="661.6" y2="484.2"/>
		</g>
	</g>
</g>
<g class="st0">
	<g>
		<g>
			<line class="st1" x1="629.7" y1="7.5" x2="629.7" y2="19"/>
		</g>
		<g>
			<line class="st1" x1="635.5" y1="13.3" x2="624" y2="13.3"/>
		</g>
	</g>
	<g>
		<g>
			<line class="st1" x1="629.7" y1="38.9" x2="629.7" y2="50.4"/>
		</g>
		<g>
			<line class="st1" x1="635.5" y1="44.7" x2="624" y2="44.7"/>
		</g>
	</g>
	<g>
		<g>
			<line class="st1" x1="629.7" y1="70.3" x2="629.7" y2="81.8"/>
		</g>
		<g>
			<line class="st1" x1="635.5" y1="76.1" x2="624" y2="76.1"/>
		</g>
	</g>
	<g>
		<g>
			<line class="st1" x1="629.7" y1="101.7" x2="629.7" y2="113.2"/>
		</g>
		<g>
			<line class="st1" x1="635.5" y1="107.5" x2="624" y2="107.5"/>
		</g>
	</g>
	<g>
		<g>
			<line class="st1" x1="629.7" y1="133.1" x2="629.7" y2="144.6"/>
		</g>
		<g>
			<line class="st1" x1="635.5" y1="138.9" x2="624" y2="138.9"/>
		</g>
	</g>
	<g>
		<g>
			<line class="st1" x1="629.7" y1="164.5" x2="629.7" y2="176"/>
		</g>
		<g>
			<line class="st1" x1="635.5" y1="170.3" x2="624" y2="170.3"/>
		</g>
	</g>
	<g>
		<g>
			<line class="st1" x1="629.7" y1="195.9" x2="629.7" y2="207.4"/>
		</g>
		<g>
			<line class="st1" x1="635.5" y1="201.7" x2="624" y2="201.7"/>
		</g>
	</g>
	<g>
		<g>
			<line class="st1" x1="629.7" y1="227.3" x2="629.7" y2="238.8"/>
		</g>
		<g>
			<line class="st1" x1="635.5" y1="233.1" x2="624" y2="233.1"/>
		</g>
	</g>
	<g>
		<g>
			<line class="st1" x1="629.7" y1="258.7" x2="629.7" y2="270.2"/>
		</g>
		<g>
			<line class="st1" x1="635.5" y1="264.4" x2="624" y2="264.4"/>
		</g>
	</g>
	<g>
		<g>
			<line class="st1" x1="629.7" y1="290.1" x2="629.7" y2="301.6"/>
		</g>
		<g>
			<line class="st1" x1="635.5" y1="295.8" x2="624" y2="295.8"/>
		</g>
	</g>
	<g>
		<g>
			<line class="st1" x1="629.7" y1="321.5" x2="629.7" y2="333"/>
		</g>
		<g>
			<line class="st1" x1="635.5" y1="327.2" x2="624" y2="327.2"/>
		</g>
	</g>
	<g>
		<g>
			<line class="st1" x1="629.7" y1="352.9" x2="629.7" y2="364.4"/>
		</g>
		<g>
			<line class="st1" x1="635.5" y1="358.6" x2="624" y2="358.6"/>
		</g>
	</g>
	<g>
		<g>
			<line class="st1" x1="629.7" y1="384.3" x2="629.7" y2="395.8"/>
		</g>
		<g>
			<line class="st1" x1="635.5" y1="390" x2="624" y2="390"/>
		</g>
	</g>
	<g>
		<g>
			<line class="st1" x1="629.7" y1="415.7" x2="629.7" y2="427.2"/>
		</g>
		<g>
			<line class="st1" x1="635.5" y1="421.4" x2="624" y2="421.4"/>
		</g>
	</g>
	<g>
		<g>
			<line class="st1" x1="629.7" y1="447.1" x2="629.7" y2="458.6"/>
		</g>
		<g>
			<line class="st1" x1="635.5" y1="452.8" x2="624" y2="452.8"/>
		</g>
	</g>
	<g>
		<g>
			<line class="st1" x1="629.7" y1="478.5" x2="629.7" y2="490"/>
		</g>
		<g>
			<line class="st1" x1="635.5" y1="484.2" x2="624" y2="484.2"/>
		</g>
	</g>
</g>
<g class="st0">
	<g>
		<g>
			<line class="st1" x1="592" y1="38.9" x2="592" y2="50.4"/>
		</g>
		<g>
			<line class="st1" x1="597.8" y1="44.7" x2="586.3" y2="44.7"/>
		</g>
	</g>
	<g>
		<g>
			<line class="st1" x1="592" y1="70.3" x2="592" y2="81.8"/>
		</g>
		<g>
			<line class="st1" x1="597.8" y1="76.1" x2="586.3" y2="76.1"/>
		</g>
	</g>
	<g>
		<g>
			<line class="st1" x1="592" y1="101.7" x2="592" y2="113.2"/>
		</g>
		<g>
			<line class="st1" x1="597.8" y1="107.5" x2="586.3" y2="107.5"/>
		</g>
	</g>
	<g>
		<g>
			<line class="st1" x1="592" y1="133.1" x2="592" y2="144.6"/>
		</g>
		<g>
			<line class="st1" x1="597.8" y1="138.9" x2="586.3" y2="138.9"/>
		</g>
	</g>
	<g>
		<g>
			<line class="st1" x1="592" y1="164.5" x2="592" y2="176"/>
		</g>
		<g>
			<line class="st1" x1="597.8" y1="170.3" x2="586.3" y2="170.3"/>
		</g>
	</g>
	<g>
		<g>
			<line class="st1" x1="592" y1="195.9" x2="592" y2="207.4"/>
		</g>
		<g>
			<line class="st1" x1="597.8" y1="201.7" x2="586.3" y2="201.7"/>
		</g>
	</g>
	<g>
		<g>
			<line class="st1" x1="592" y1="227.3" x2="592" y2="238.8"/>
		</g>
		<g>
			<line class="st1" x1="597.8" y1="233.1" x2="586.3" y2="233.1"/>
		</g>
	</g>
	<g>
		<g>
			<line class="st1" x1="592" y1="258.7" x2="592" y2="270.2"/>
		</g>
		<g>
			<line class="st1" x1="597.8" y1="264.4" x2="586.3" y2="264.4"/>
		</g>
	</g>
	<g>
		<g>
			<line class="st1" x1="592" y1="290.1" x2="592" y2="301.6"/>
		</g>
		<g>
			<line class="st1" x1="597.8" y1="295.8" x2="586.3" y2="295.8"/>
		</g>
	</g>
	<g>
		<g>
			<line class="st1" x1="592" y1="321.5" x2="592" y2="333"/>
		</g>
		<g>
			<line class="st1" x1="597.8" y1="327.2" x2="586.3" y2="327.2"/>
		</g>
	</g>
	<g>
		<g>
			<line class="st1" x1="592" y1="352.9" x2="592" y2="364.4"/>
		</g>
		<g>
			<line class="st1" x1="597.8" y1="358.6" x2="586.3" y2="358.6"/>
		</g>
	</g>
	<g>
		<g>
			<line class="st1" x1="592" y1="384.3" x2="592" y2="395.8"/>
		</g>
		<g>
			<line class="st1" x1="597.8" y1="390" x2="586.3" y2="390"/>
		</g>
	</g>
	<g>
		<g>
			<line class="st1" x1="592" y1="415.7" x2="592" y2="427.2"/>
		</g>
		<g>
			<line class="st1" x1="597.8" y1="421.4" x2="586.3" y2="421.4"/>
		</g>
	</g>
	<g>
		<g>
			<line class="st1" x1="592" y1="447.1" x2="592" y2="458.6"/>
		</g>
		<g>
			<line class="st1" x1="597.8" y1="452.8" x2="586.3" y2="452.8"/>
		</g>
	</g>
	<g>
		<g>
			<line class="st1" x1="592" y1="478.5" x2="592" y2="490"/>
		</g>
		<g>
			<line class="st1" x1="597.8" y1="484.2" x2="586.3" y2="484.2"/>
		</g>
	</g>
</g>
<g class="st0">
	<g>
		<line class="st1" x1="554.4" y1="70.3" x2="554.4" y2="81.8"/>
	</g>
	<g>
		<line class="st1" x1="560.1" y1="76.1" x2="548.6" y2="76.1"/>
	</g>
</g>
<g class="st0">
	<g>
		<line class="st1" x1="514.7" y1="70.3" x2="514.7" y2="81.8"/>
	</g>
	<g>
		<line class="st1" x1="520.5" y1="76.1" x2="509" y2="76.1"/>
	</g>
</g>
<g class="st0">
	<g>
		<line class="st1" x1="485.3" y1="70.3" x2="485.3" y2="81.8"/>
	</g>
	<g>
		<line class="st1" x1="491" y1="76.1" x2="479.5" y2="76.1"/>
	</g>
</g>
<g class="st0">
	<g>
		<line class="st1" x1="404.7" y1="70.3" x2="404.7" y2="81.8"/>
	</g>
	<g>
		<line class="st1" x1="410.4" y1="76.1" x2="398.9" y2="76.1"/>
	</g>
</g>
<g class="st0">
	<g>
		<line class="st1" x1="554.4" y1="101.7" x2="554.4" y2="113.2"/>
	</g>
	<g>
		<line class="st1" x1="560.1" y1="107.5" x2="548.6" y2="107.5"/>
	</g>
</g>
<g class="st0">
	<g>
		<line class="st1" x1="514.7" y1="101.7" x2="514.7" y2="113.2"/>
	</g>
	<g>
		<line class="st1" x1="520.5" y1="107.5" x2="509" y2="107.5"/>
	</g>
</g>
<g class="st0">
	<g>
		<line class="st1" x1="554.4" y1="133.1" x2="554.4" y2="144.6"/>
	</g>
	<g>
		<line class="st1" x1="560.1" y1="138.9" x2="548.6" y2="138.9"/>
	</g>
</g>
<g class="st0">
	<g>
		<line class="st1" x1="452.8" y1="133.1" x2="452.8" y2="144.6"/>
	</g>
	<g>
		<line class="st1" x1="458.6" y1="138.9" x2="447.1" y2="138.9"/>
	</g>
</g>
<g class="st0">
	<g>
		<line class="st1" x1="554.4" y1="164.5" x2="554.4" y2="176"/>
	</g>
	<g>
		<line class="st1" x1="560.1" y1="170.3" x2="548.6" y2="170.3"/>
	</g>
</g>
<g class="st0">
	<g>
		<line class="st1" x1="453" y1="164.5" x2="453" y2="176"/>
	</g>
	<g>
		<line class="st1" x1="458.7" y1="170.3" x2="447.2" y2="170.3"/>
	</g>
</g>
<g class="st0">
	<g>
		<line class="st1" x1="328.4" y1="164.5" x2="328.4" y2="176"/>
	</g>
	<g>
		<line class="st1" x1="334.2" y1="170.3" x2="322.7" y2="170.3"/>
	</g>
</g>
<g class="st0">
	<g>
		<line class="st1" x1="225.9" y1="164.5" x2="225.9" y2="176"/>
	</g>
	<g>
		<line class="st1" x1="231.6" y1="170.3" x2="220.1" y2="170.3"/>
	</g>
</g>
<g class="st0">
	<g>
		<line class="st1" x1="366.1" y1="164.5" x2="366.1" y2="176"/>
	</g>
	<g>
		<line class="st1" x1="371.9" y1="170.3" x2="360.3" y2="170.3"/>
	</g>
</g>
<g class="st0">
	<g>
		<line class="st1" x1="554.4" y1="195.9" x2="554.4" y2="207.4"/>
	</g>
	<g>
		<line class="st1" x1="560.1" y1="201.7" x2="548.6" y2="201.7"/>
	</g>
</g>
<g class="st0">
	<g>
		<line class="st1" x1="366" y1="227.3" x2="366" y2="238.8"/>
	</g>
	<g>
		<line class="st1" x1="371.7" y1="233.1" x2="360.2" y2="233.1"/>
	</g>
</g>
<g class="st0">
	<g>
		<line class="st1" x1="295.8" y1="227.3" x2="295.8" y2="238.8"/>
	</g>
	<g>
		<line class="st1" x1="301.6" y1="233.1" x2="290.1" y2="233.1"/>
	</g>
</g>
<g class="st0">
	<g>
		<line class="st1" x1="164" y1="227.3" x2="164" y2="238.8"/>
	</g>
	<g>
		<line class="st1" x1="169.7" y1="233.1" x2="158.2" y2="233.1"/>
	</g>
</g>
<g class="st0">
	<g>
		<line class="st1" x1="110.6" y1="227.3" x2="110.6" y2="238.8"/>
	</g>
	<g>
		<line class="st1" x1="116.3" y1="233.1" x2="104.8" y2="233.1"/>
	</g>
</g>
<g class="st0">
	<g>
		<line class="st1" x1="554.4" y1="258.7" x2="554.4" y2="270.2"/>
	</g>
	<g>
		<line class="st1" x1="560.1" y1="264.4" x2="548.6" y2="264.4"/>
	</g>
</g>
<g class="st0">
	<g>
		<line class="st1" x1="514.7" y1="258.7" x2="514.7" y2="270.2"/>
	</g>
	<g>
		<line class="st1" x1="520.5" y1="264.4" x2="509" y2="264.4"/>
	</g>
</g>
<g class="st0">
	<g>
		<line class="st1" x1="554.4" y1="290.1" x2="554.4" y2="301.6"/>
	</g>
	<g>
		<line class="st1" x1="560.1" y1="295.8" x2="548.6" y2="295.8"/>
	</g>
</g>
<g class="st0">
	<g>
		<line class="st1" x1="554.4" y1="321.5" x2="554.4" y2="333"/>
	</g>
	<g>
		<line class="st1" x1="560.1" y1="327.2" x2="548.6" y2="327.2"/>
	</g>
</g>
<g class="st0">
	<g>
		<line class="st1" x1="514.7" y1="321.5" x2="514.7" y2="333"/>
	</g>
	<g>
		<line class="st1" x1="520.5" y1="327.2" x2="509" y2="327.2"/>
	</g>
</g>
<g class="st0">
	<g>
		<line class="st1" x1="452.8" y1="321.5" x2="452.8" y2="333"/>
	</g>
	<g>
		<line class="st1" x1="458.6" y1="327.2" x2="447.1" y2="327.2"/>
	</g>
</g>
<g class="st0">
	<g>
		<line class="st1" x1="366" y1="321.5" x2="366" y2="333"/>
	</g>
	<g>
		<line class="st1" x1="371.7" y1="327.2" x2="360.2" y2="327.2"/>
	</g>
</g>
<g class="st0">
	<g>
		<line class="st1" x1="554.4" y1="352.9" x2="554.4" y2="364.4"/>
	</g>
	<g>
		<line class="st1" x1="560.1" y1="358.6" x2="548.6" y2="358.6"/>
	</g>
</g>
<g class="st0">
	<g>
		<line class="st1" x1="514.7" y1="352.9" x2="514.7" y2="364.4"/>
	</g>
	<g>
		<line class="st1" x1="520.5" y1="358.6" x2="509" y2="358.6"/>
	</g>
</g>
<g class="st0">
	<g>
		<line class="st1" x1="554.4" y1="384.3" x2="554.4" y2="395.8"/>
	</g>
	<g>
		<line class="st1" x1="560.1" y1="390" x2="548.6" y2="390"/>
	</g>
</g>
<g class="st0">
	<g>
		<line class="st1" x1="554.4" y1="415.7" x2="554.4" y2="427.2"/>
	</g>
	<g>
		<line class="st1" x1="560.1" y1="421.4" x2="548.6" y2="421.4"/>
	</g>
</g>
<g class="st0">
	<g>
		<line class="st1" x1="554.4" y1="447.1" x2="554.4" y2="458.6"/>
	</g>
	<g>
		<line class="st1" x1="560.1" y1="452.8" x2="548.6" y2="452.8"/>
	</g>
</g>
<g class="st0">
	<g>
		<line class="st1" x1="514.7" y1="447.1" x2="514.7" y2="458.6"/>
	</g>
	<g>
		<line class="st1" x1="520.5" y1="452.8" x2="509" y2="452.8"/>
	</g>
</g>
</svg>
