<svg id="Layer_1" xmlns="http://www.w3.org/2000/svg" viewBox="0 0 264.8 300">
  <style>
    .st2{fill:#989898}.st3{fill:none;stroke:#989898;stroke-width:10.0282;stroke-linecap:round;stroke-linejoin:round;stroke-miterlimit:10}.st4{fill:#666667}
  </style>
  <path d="M125.5 74.3C104.6 62.5 122 18.5 137 46.9 147.7 67.3 151.3 73 151.3 73" fill="none" stroke="#666667" stroke-width="4.011" stroke-miterlimit="10"/>
  <path fill="none" stroke="#989898" stroke-width="4.011" stroke-linecap="round" stroke-linejoin="round" stroke-miterlimit="10" d="M185.2 107.4l7.7 52.7"/>
  <ellipse transform="rotate(-14.429 193.25 162.675)" class="st2" cx="193.3" cy="162.7" rx="3.6" ry="2.2"/>
  <circle class="st3" cx="138.4" cy="73.7" r="12.9"/>
  <circle class="st4" cx="162.8" cy="67.7" r="22.1"/>
  <path class="st4" d="M159.5 102.6c19.5 26.7 29.3 19.6 62.5-1.5 34.4-21.9 53.4-36.1 33.3-51.6-25.1-19.3-52.7-43.5-79.2-26.2s-35.3 53.7-16.6 79.3zM13.3 273.2c.9 17.7 22.4 21.9 48.6 20.6 26.2-1.4 46-4.2 46.2-25.6.1-11.6-22.2-17.9-48.4-16.5-26.2 1.3-47.1 9.9-46.4 21.5z"/>
  <path class="st2" d="M13.2 271.5c.5 9.6 19.1 13.5 45.3 12.1 26.2-1.4 50-7.5 49.5-17.1-.5-9.6-22.1-16.3-48.3-14.9-26.2 1.4-47 10.3-46.5 19.9z"/>
  <path fill="none" stroke="#666667" stroke-width="10.028" stroke-linecap="round" stroke-linejoin="round" stroke-miterlimit="10" d="M31.3 195.7L6.6 197"/>
  <path class="st3" d="M18.6 196.4l20.2 64.4M123.9 74.8L17.3 193.3"/>
  <ellipse transform="rotate(-33.183 208.416 89.007)" cx="208.4" cy="89" rx="16.3" ry="7.5" fill="#eaeae9"/>
  <path d="M175.3 118.7c6.4 4.5 4.8-7.9 44.3-33.7 38.1-25 45.4-18.3 44.2-24.2-9.6-47.1-56.4-58.1-87.8-37.6-30.6 20-39.3 68.7-.7 95.5z" fill="#cccbcb"/>
  <path d="M239.9 37.5s-11.6-18.6-37.5-16.4.2 8.2.2 8.2l37.3 8.2z" fill="#fff"/>
</svg>
