<svg xmlns="http://www.w3.org/2000/svg" viewBox="0 0 100 100">
  <path d="M75.3 82.8C52.1 106.2 29.7 90.5 15 73S4.8 34.7 21.7 19.1C45.4-2.6 72 3.9 86.8 21.5s4.7 45-11.5 61.3z" fill="none" stroke="#666667" stroke-width="4.015" stroke-miterlimit="10"/>
  <path d="M29.7 33.5c4.4 1 8.1 4.2 11 7.7 2.5 3 4.6 6.3 5.5 10.1.9 3.7.5 7.9-1.7 11.1-.9 1.3-2.3 2.5-3.9 2.4-2-.1-3.4-2.2-4-4.2-1.3-4-1.1-8.3-.5-12.4.9-5.8 2.9-11.7 7.3-15.6s11.6-5.1 16.1-1.4c4.4 3.6 4.9 9.9 5 15.5.1 9.9-.8 16.3-4.4 29.2" fill="none" stroke="#666667" stroke-width="6.081" stroke-linecap="round" stroke-linejoin="round" stroke-miterlimit="10"/>
</svg>
