<svg id="Layer_3" xmlns="http://www.w3.org/2000/svg" viewBox="0 0 96 32">
  <style>
    .st0{fill:#33CCCC}
  </style>
  <path class="st0" d="M33.4 7.9h8.3c.8 0 1.5.1 2.2.2.6.1 1.2.4 1.8.7s1 .8 1.3 1.4c.3.6.4 1.3.4 2.2 0 1.7-.8 2.9-2.4 3.7 1.1.3 1.9.8 2.4 1.6s.8 1.7.8 2.9c0 .7-.1 1.3-.3 1.9-.2.6-.5 1.1-.9 1.5-.4.4-.8.7-1.4 1-.5.3-1.1.5-1.7.6-.6.1-1.2.2-1.9.2h-8.6V7.9zm3.9 7.2h3.9c.7 0 1.3-.2 1.7-.5.4-.3.6-.9.6-1.6 0-1.3-.9-2-2.7-2h-3.6v4.1zm0 7.5h4.2c1.9 0 2.9-.8 2.9-2.3 0-1.7-.9-2.5-2.8-2.5h-4.2v4.8zm18.7.7c.6 0 1.2-.1 1.7-.4.6-.3.9-.7 1.1-1.2h3.1c-.9 2.9-2.9 4.3-6 4.3-2 0-3.6-.6-4.8-1.9-1.2-1.2-1.8-2.9-1.8-4.9 0-1.9.6-3.6 1.8-4.8 1.2-1.3 2.8-1.9 4.7-1.9 1.3 0 2.4.3 3.4 1 1 .6 1.7 1.5 2.1 2.5.5 1 .7 2.2.7 3.5v.7h-9.2c0 1 .3 1.8.8 2.4.6.4 1.4.7 2.4.7zm3.3-14.2h-7.2v1.7h7.2V9.1zm-3.5 6c-.8 0-1.5.2-2 .7-.5.5-.8 1.2-.9 2h5.7c-.2-1.8-1.1-2.7-2.8-2.7zM10.8 7.7c0 .7-.2 1.3-.7 1.7-.5.5-1.1.7-1.9.7-.8 0-1.4-.2-1.8-.7s-.7-1-.7-1.7.2-1.3.7-1.7c.5-.5 1.1-.7 1.9-.7.7.1 1.3.3 1.8.7.5.5.7 1.1.7 1.7zm-.3 4.3v13.9H5.9V12h4.6zm16.6 6v8h-4.6v-7.4c0-1-.2-1.7-.6-2.3-.4-.6-1-.8-1.8-.8-.6 0-1.1.2-1.5.5-.4.3-.7.7-.9 1.2-.1.3-.2.7-.2 1.1v7.8h-4.6V17v-4.8h4.6v2c.2-.3.4-.6.6-.8.2-.2.5-.5.8-.7.3-.3.7-.5 1.2-.6.5-.1 1-.2 1.6-.2 1.6 0 2.9.5 3.9 1.6 1.1.9 1.5 2.4 1.5 4.5zM73.8 6.4c1.6-1 3.4-1.4 5.4-1.4 2 0 3.8.5 5.4 1.4 1.6 1 3 2.3 3.9 3.9s1.4 3.4 1.4 5.4c0 2.3-.7 4.5-2.1 6.3-1.4 1.9-3.1 3.2-5.3 3.9-.3 0-.4 0-.6-.1-.1-.1-.2-.3-.2-.4v-1.1-1.9c0-.9-.2-1.6-.7-2 .5-.1 1-.1 1.4-.3.4-.1.9-.3 1.3-.5.5-.3.8-.6 1.1-.9.3-.4.6-.9.7-1.5.2-.6.3-1.3.3-2.1 0-1.1-.4-2.1-1.1-2.9.3-.8.3-1.8-.1-2.9-.3-.1-.6 0-1.1.2-.5.2-.9.4-1.3.6l-.5.3c-.9-.2-1.8-.4-2.7-.4-.9 0-1.8.1-2.7.4-.1-.1-.3-.2-.6-.4-.2-.1-.6-.3-1.2-.5-.5-.2-.9-.3-1.2-.2-.4 1.1-.5 2-.1 2.9-.7.8-1.1 1.8-1.1 2.9 0 .8.1 1.5.3 2.1.2.6.4 1.1.7 1.5.3.4.7.7 1.1.9.5.3.9.4 1.3.5.4.1.9.2 1.4.3-.4.3-.6.8-.7 1.4.2.2 0 .2-.2.3s-.5.1-.8.1c-.3 0-.6-.1-.9-.3-.3-.2-.6-.5-.8-.9-.2-.3-.4-.5-.7-.7-.3-.2-.5-.3-.7-.3h-.3c-.2 0-.3 0-.4.1-.1 0-.1.1-.1.2s.1.1.1.2l.2.2.1.1c.2.1.4.3.6.5.2.3.3.5.4.7l.1.3c.1.4.3.6.6.9.3.2.6.4.9.4.3.1.7.1 1 .1h.8l.3-.1v2c0 .2-.1.3-.2.4-.1.1-.3.1-.6.1-2.2-.7-3.9-2-5.3-3.9s-2.1-4-2.1-6.3c0-2 .5-3.8 1.4-5.4s2.6-3.2 4.2-4.1zm-1.2 14c0-.1 0-.1-.1-.2h-.2c0 .1 0 .1.1.2s.1.1.2 0zm.4.5c.1 0 .1-.1 0-.2s-.2-.1-.2 0c-.1 0-.1.1 0 .2h.2zm.4.6c.1-.1.1-.2 0-.3-.1-.1-.2-.1-.2-.1-.1 0-.1.1 0 .3.1.1.1.1.2.1zm.6.6c.1-.1.1-.2-.1-.3-.1-.1-.2-.1-.3 0-.1.1-.1.2.1.3.1 0 .2.1.3 0zm.8.3c0-.1 0-.2-.2-.2-.1 0-.2 0-.3.1 0 .1 0 .2.2.2.2.1.3 0 .3-.1zm.9.1c0-.1-.1-.2-.2-.2s-.2.1-.2.2.1.2.2.2.2-.1.2-.2zm.8-.1c0-.1-.1-.1-.3-.1-.1 0-.2.1-.2.2s.1.1.3.1c.1-.1.2-.1.2-.2z"/>
  <view id="linkedin" viewBox="0 0 32 32" />
  <view id="behance" viewBox="32 0 32 32" />
  <view id="github" viewBox="64 0 32 32" />
</svg>
